<svg xmlns="http://www.w3.org/2000/svg" xmlns:xlink="http://www.w3.org/1999/xlink" version="1.1" id="Layer_1" x="0px" y="0px" width="100px" height="100px" viewBox="0 0 100 100" enable-background="new 0 0 100 100" xml:space="preserve">
<g>
	<path fill="#000000" d="M71.268,27.167c0,11.746-9.521,27.958-21.268,27.958S28.731,38.914,28.731,27.167   c0-11.747,9.522-21.269,21.269-21.269S71.268,15.421,71.268,27.167z"/>
	<path fill="#000000" d="M66.079,49.318c-4.292,5.513-9.917,9.41-16.079,9.41c-6.163,0-11.787-3.897-16.079-9.41   C20.2,54.923,10.636,66.595,10.636,74.548c0,10.799,17.624,19.554,39.364,19.554s39.364-8.754,39.364-19.554   C89.364,66.595,79.801,54.922,66.079,49.318z"/>
</g>
</svg>